<svg width="1000" height="500" viewBox="0 0 1000 500" fill="none" xmlns="http://www.w3.org/2000/svg">
<path d="M42.4035 34.4986C42.1398 33.5146 41.3657 32.7413 40.3807 32.4779C38.5952 32 31.44 32 31.44 32C31.44 32 24.2848 32 22.5012 32.4779C21.5162 32.7413 20.7421 33.5146 20.4784 34.4986C20 36.2803 20 40 20 40C20 40 20 43.7197 20.4784 45.5014C20.7421 46.4854 21.5162 47.2587 22.5012 47.5221C24.2848 48 31.44 48 31.44 48C31.44 48 38.5952 48 40.3788 47.5221C41.3638 47.2587 42.1379 46.4854 42.4016 45.5014C42.88 43.7197 42.88 40 42.88 40C42.88 40 42.88 36.2803 42.4016 34.4986H42.4035ZM29.1516 43.428V36.572L35.0958 40L29.1516 43.428Z" fill="white"/>
<path d="M170.449 40.8447L170.893 38.0621H168.28V36.1242C168.28 35.3292 168.576 34.7329 169.759 34.7329H171.041V32.1988C170.351 32.0994 169.562 32 168.872 32C166.604 32 165.026 33.3913 165.026 35.8758V38.0621H162.561V40.8447H165.026V47.8509C165.568 47.9503 166.111 48 166.653 48C167.195 48 167.738 47.9503 168.28 47.8509V40.8447H170.449Z" fill="white"/>
<path fill-rule="evenodd" clip-rule="evenodd" d="M221.039 34.1387L235.139 25L249.239 34.1387V37.5234H244.143V35.4926L235.139 29.4001L226.135 35.4926V37.5234H221.039V34.1387ZM230.552 35.4926V34.4771H239.726V35.4926V38.2003H230.552V35.4926ZM226.135 37.5234V44.6312H244.143V37.5234H247.2V48.3544H223.078V37.5234H226.135ZM230.552 39.2157H239.726V42.9389H230.552V39.2157ZM245.327 50.4137C245.327 51.0528 245.684 51.4576 246.215 51.4576C246.685 51.4576 247.031 51.1626 247.031 50.6421V50.3761H246.302V50.7549H246.624C246.601 50.9313 246.505 51.0614 246.227 51.0614C245.922 51.0614 245.745 50.7867 245.745 50.4137C245.745 50.0378 245.919 49.7718 246.224 49.7718C246.444 49.7718 246.537 49.8845 246.613 50.0349L246.999 49.8759C246.865 49.5636 246.645 49.3698 246.229 49.3698C245.698 49.3698 245.327 49.7978 245.327 50.4137ZM244.911 51.4258H244.549L243.803 50.3212L243.797 50.3125C243.748 50.2383 243.685 50.1428 243.66 50.0927C243.66 50.1264 243.662 50.1962 243.663 50.2731V50.2745C243.664 50.3685 243.666 50.4734 243.666 50.5351V51.4258H243.266V49.4016H243.655L244.374 50.4715L244.38 50.4802L244.381 50.4808C244.429 50.5549 244.492 50.65 244.517 50.7C244.517 50.6662 244.515 50.5963 244.514 50.5193C244.513 50.4249 244.511 50.3196 244.511 50.2575V49.4016H244.911V51.4258ZM242.308 51.4258H242.715V49.4016H242.308V51.4258ZM241.849 50.8127C241.849 51.1973 241.605 51.4576 241.051 51.4576C240.711 51.4576 240.415 51.3159 240.261 51.0903L240.555 50.8301C240.697 50.9949 240.88 51.0614 241.074 51.0614C241.315 51.0614 241.428 50.9949 241.428 50.8417C241.428 50.7115 241.359 50.6537 240.975 50.567C240.601 50.4802 240.34 50.3616 240.34 49.9626C240.34 49.5954 240.665 49.3698 241.065 49.3698C241.382 49.3698 241.614 49.4884 241.806 49.6879L241.512 49.9713C241.382 49.8383 241.237 49.7631 241.051 49.7631C240.833 49.7631 240.761 49.8556 240.761 49.9453C240.761 50.0725 240.848 50.113 241.17 50.1882C241.492 50.2633 241.849 50.3732 241.849 50.8127ZM239.027 51.4576C239.544 51.4576 239.851 51.1193 239.851 50.5323V49.4016H239.445V50.538C239.445 50.8619 239.285 51.0614 239.027 51.0614C238.769 51.0614 238.612 50.8561 238.612 50.5323V49.4016H238.205V50.538C238.205 51.1279 238.536 51.4576 239.027 51.4576ZM237.811 50.4108C237.811 51.0643 237.443 51.4576 236.914 51.4576C236.383 51.4576 236.02 51.0701 236.02 50.4166C236.02 49.7631 236.389 49.3698 236.92 49.3698C237.449 49.3698 237.811 49.7573 237.811 50.4108ZM237.393 50.4166C237.393 50.006 237.196 49.7718 236.912 49.7718C236.627 49.7718 236.438 50.0002 236.438 50.4108C236.438 50.8214 236.636 51.0556 236.92 51.0556C237.205 51.0556 237.393 50.8272 237.393 50.4166ZM235.205 51.4258H235.611V49.4016H235.205V50.1766H234.372V49.4016H233.965V51.4258H234.372V50.5756H235.205V51.4258ZM232.749 51.4258H231.323V49.4016H231.73V51.0267H232.749V51.4258ZM230.499 51.4258H230.946L230.174 49.4016H229.779L229.001 51.4258H229.437L229.596 50.9747H230.339L230.499 51.4258ZM230.069 50.2228L230.2 50.5901H229.736L229.866 50.2228C229.907 50.1043 229.947 49.9828 229.968 49.9077C229.988 49.9828 230.029 50.1043 230.069 50.2228ZM228.74 50.5323C228.74 51.1193 228.432 51.4576 227.915 51.4576C227.425 51.4576 227.094 51.1279 227.094 50.538V49.4016H227.5V50.5323C227.5 50.8561 227.657 51.0614 227.915 51.0614C228.174 51.0614 228.333 50.8619 228.333 50.538V49.4016H228.74V50.5323ZM226.418 51.1916C226.595 51.0094 226.694 50.7607 226.694 50.4137C226.694 49.7978 226.366 49.3698 225.811 49.3698C225.257 49.3698 224.929 49.7978 224.929 50.4137C224.929 51.0296 225.257 51.4576 225.811 51.4576C225.924 51.4576 226.02 51.4402 226.113 51.4026L226.258 51.6137L226.569 51.4113L226.418 51.1916ZM225.811 49.7718C226.139 49.7718 226.276 50.0522 226.276 50.4137C226.276 50.5843 226.255 50.7462 226.191 50.859L226.061 50.6653L225.75 50.8677L225.887 51.0701C225.866 51.073 225.843 51.0759 225.82 51.0759C225.492 51.0759 225.347 50.7838 225.347 50.4137C225.347 50.0522 225.483 49.7718 225.811 49.7718ZM224.702 51.4258H223.247V49.4016H224.658V49.7978H223.654V50.1477H224.237V50.5409H223.654V51.0296H224.702V51.4258ZM246.157 54.0543L247.031 52.6653H246.506L246.18 53.2104C246.094 53.3549 245.972 53.5749 245.93 53.6602C245.887 53.5749 245.762 53.3483 245.679 53.2104L245.353 52.6653H244.822L245.696 54.0641V54.9639H246.157V54.0543ZM244.602 53.1184H243.939V54.9639H243.478V53.1184H242.815V52.6653H244.602V53.1184ZM241.876 54.9639H242.338V52.6653H241.876V54.9639ZM241.25 54.9639H240.838L239.991 53.7095L239.984 53.6997C239.929 53.6156 239.858 53.5069 239.829 53.4501C239.829 53.4885 239.83 53.568 239.832 53.6555V53.6566C239.834 53.7635 239.836 53.8822 239.836 53.9525V54.9639H239.381V52.6653H239.822L240.64 53.8803L240.646 53.8901C240.701 53.9743 240.773 54.0828 240.801 54.1397C240.801 54.1013 240.8 54.0218 240.799 53.9342V53.9331C240.797 53.8262 240.795 53.7075 240.795 53.6373V52.6653H241.25V54.9639ZM237.867 55C238.454 55 238.803 54.6158 238.803 53.9492V52.6653H238.341V53.9558C238.341 54.3236 238.16 54.5501 237.867 54.5501C237.573 54.5501 237.395 54.317 237.395 53.9492V52.6653H236.934V53.9558C236.934 54.6257 237.31 55 237.867 55ZM236.506 53.1184H235.843V54.9639H235.382V53.1184H234.719V52.6653H236.506V53.1184ZM233.933 54.9639H234.464L234.022 54.0707C234.316 53.9558 234.464 53.739 234.464 53.3943C234.464 52.905 234.105 52.6653 233.67 52.6653H232.595V54.9639H233.057V54.1364H233.521L233.933 54.9639ZM233.66 53.1119C233.864 53.1119 233.99 53.1972 233.99 53.4041C233.99 53.6044 233.874 53.7029 233.66 53.7029H233.057V53.1119H233.66ZM232.131 53.8113C232.131 54.5534 231.713 55 231.113 55C230.509 55 230.097 54.56 230.097 53.8179C230.097 53.0757 230.516 52.6291 231.119 52.6291C231.719 52.6291 232.131 53.0692 232.131 53.8113ZM231.657 53.8179C231.657 53.3516 231.432 53.0856 231.109 53.0856C230.786 53.0856 230.572 53.345 230.572 53.8113C230.572 54.2776 230.796 54.5436 231.119 54.5436C231.442 54.5436 231.657 54.2841 231.657 53.8179ZM228.955 54.1495C229.433 54.1495 229.789 53.9262 229.789 53.3943C229.789 52.905 229.429 52.6653 228.994 52.6653H227.986V54.9639H228.447V54.1495H228.955ZM228.978 53.1119C229.182 53.1119 229.314 53.2038 229.314 53.4041C229.314 53.6044 229.199 53.7029 228.984 53.7029H228.447V53.1119H228.978ZM227.548 53.3943C227.548 53.9262 227.192 54.1495 226.714 54.1495H226.207V54.9639H225.745V52.6653H226.754C227.189 52.6653 227.548 52.905 227.548 53.3943ZM227.074 53.4041C227.074 53.2038 226.942 53.1119 226.737 53.1119H226.207V53.7029H226.744C226.958 53.7029 227.074 53.6044 227.074 53.4041ZM224.263 55C224.863 55 225.281 54.5534 225.281 53.8113C225.281 53.0692 224.869 52.6291 224.269 52.6291C223.666 52.6291 223.247 53.0757 223.247 53.8179C223.247 54.56 223.659 55 224.263 55ZM224.259 53.0856C224.582 53.0856 224.807 53.3516 224.807 53.8179C224.807 54.2841 224.592 54.5436 224.269 54.5436C223.946 54.5436 223.722 54.2776 223.722 53.8113C223.722 53.345 223.936 53.0856 224.259 53.0856Z" fill="white"/>
<path d="M409.316 20H308.77C308.403 20 308.041 20 307.675 20.002C307.369 20.004 307.066 20.0098 306.757 20.0147C306.086 20.0226 305.416 20.0817 304.754 20.1914C304.093 20.3036 303.452 20.5149 302.854 20.8184C302.257 21.1245 301.711 21.5222 301.236 21.9971C300.759 22.4707 300.362 23.018 300.059 23.6182C299.755 24.2171 299.544 24.859 299.434 25.5215C299.323 26.1832 299.263 26.8525 299.255 27.5235C299.246 27.8301 299.245 28.1377 299.24 28.4443V51.5585C299.245 51.869 299.246 52.1698 299.255 52.4804C299.263 53.1513 299.323 53.8206 299.434 54.4823C299.544 55.1452 299.755 55.7874 300.059 56.3866C300.362 56.9848 300.759 57.53 301.236 58.0009C301.709 58.4779 302.255 58.8759 302.854 59.1796C303.452 59.4839 304.093 59.6966 304.754 59.8104C305.416 59.9193 306.086 59.9784 306.757 59.9872C307.066 59.994 307.369 59.9979 307.675 59.9979C308.041 59.9999 308.403 59.9999 308.77 59.9999H409.316C409.675 59.9999 410.04 59.9999 410.399 59.9979C410.704 59.9979 411.016 59.994 411.321 59.9872C411.99 59.9788 412.659 59.9197 413.32 59.8104C413.983 59.6957 414.626 59.4832 415.227 59.1796C415.825 58.8757 416.371 58.4778 416.843 58.0009C417.319 57.5281 417.717 56.9834 418.024 56.3866C418.326 55.787 418.534 55.1449 418.643 54.4823C418.754 53.8206 418.816 53.1514 418.828 52.4804C418.832 52.1698 418.832 51.869 418.832 51.5585C418.84 51.1952 418.84 50.8339 418.84 50.4647V29.5361C418.84 29.1699 418.84 28.8066 418.832 28.4443C418.832 28.1377 418.832 27.8301 418.828 27.5234C418.816 26.8524 418.754 26.1832 418.643 25.5215C418.534 24.8593 418.326 24.2175 418.024 23.6181C417.407 22.4152 416.429 21.4361 415.227 20.8183C414.626 20.5156 413.983 20.3043 413.32 20.1913C412.659 20.0811 411.99 20.022 411.321 20.0146C411.016 20.0097 410.704 20.0038 410.399 20.0019C410.04 19.9999 409.675 20 409.316 20Z" fill="#A6A6A6"/>
<path d="M307.68 59.1249C307.376 59.1249 307.079 59.121 306.776 59.1142C306.151 59.106 305.526 59.0515 304.908 58.9511C304.332 58.8518 303.774 58.6671 303.252 58.4032C302.736 58.1414 302.264 57.7981 301.856 57.3866C301.442 56.9799 301.098 56.5081 300.836 55.9901C300.572 55.4687 300.389 54.9098 300.294 54.3329C300.191 53.713 300.135 53.0862 300.127 52.4579C300.121 52.247 300.113 51.5448 300.113 51.5448V28.4443C300.113 28.4443 300.121 27.7529 300.127 27.5498C300.135 26.9225 300.19 26.2966 300.293 25.6777C300.388 25.0992 300.571 24.5387 300.836 24.0156C301.096 23.4979 301.439 23.0258 301.85 22.6177C302.261 22.2056 302.734 21.8606 303.252 21.5952C303.772 21.3321 304.329 21.1487 304.904 21.0513C305.524 20.9498 306.151 20.895 306.779 20.8872L307.681 20.875H410.394L411.307 20.8877C411.929 20.8951 412.55 20.9494 413.164 21.0503C413.745 21.149 414.308 21.3336 414.834 21.5981C415.872 22.133 416.716 22.9792 417.248 24.0181C417.508 24.5376 417.689 25.0935 417.783 25.667C417.887 26.291 417.945 26.9217 417.957 27.5542C417.96 27.8374 417.96 28.1416 417.96 28.4443C417.967 28.8193 417.967 29.1762 417.967 29.5361V50.4647C417.967 50.828 417.967 51.1825 417.96 51.5399C417.96 51.8651 417.96 52.163 417.956 52.4696C417.944 53.0908 417.887 53.7103 417.785 54.3231C417.692 54.9041 417.51 55.4674 417.245 55.9931C416.982 56.5055 416.639 56.9731 416.23 57.3788C415.822 57.7926 415.35 58.1378 414.831 58.4013C414.306 58.6673 413.744 58.8526 413.164 58.9511C412.547 59.052 411.922 59.1066 411.296 59.1142C411.003 59.121 410.697 59.1249 410.399 59.1249L409.316 59.1269L307.68 59.1249Z" fill="black"/>
<path fill-rule="evenodd" clip-rule="evenodd" d="M358.303 28.4375H359.191V34.6982H358.303V28.4375ZM337.047 28.7315C337.436 28.7035 337.827 28.7624 338.191 28.9038C338.555 29.0453 338.883 29.2657 339.151 29.5494C339.42 29.833 339.622 30.1727 339.743 30.5439C339.865 30.9152 339.902 31.3088 339.853 31.6963C339.853 33.6026 338.823 34.6983 337.047 34.6983H334.893V28.7315H337.047ZM335.819 33.8545H336.943C337.222 33.8711 337.5 33.8255 337.759 33.7208C338.017 33.6162 338.249 33.4553 338.437 33.2497C338.626 33.0442 338.766 32.7991 338.848 32.5325C338.929 32.2659 338.951 31.9844 338.91 31.7085C338.948 31.4336 338.924 31.1539 338.841 30.8892C338.758 30.6245 338.618 30.3815 338.43 30.1776C338.242 29.9737 338.011 29.8139 337.754 29.7096C337.497 29.6054 337.22 29.5593 336.943 29.5747H335.819V33.8545ZM373.88 49.0765C372.246 49.0765 371.051 48.268 370.913 47.0365L369.012 47.0364C369.132 49.2825 370.99 50.7034 373.743 50.7034C376.684 50.7034 378.534 49.2484 378.534 46.9251C378.534 45.1088 377.476 44.0853 374.929 43.4828L373.562 43.1468C371.962 42.7513 371.308 42.2348 371.308 41.3568C371.308 40.2553 372.332 39.4984 373.828 39.4984C375.325 39.4984 376.349 40.2465 376.461 41.4857H378.336C378.275 39.3432 376.477 37.8715 373.855 37.8715C371.205 37.8715 369.339 39.3432 369.339 41.4857C369.339 43.2162 370.397 44.2826 372.676 44.8334L374.284 45.2211C375.893 45.6166 376.572 46.1937 376.572 47.1576C376.572 48.2679 375.446 49.0765 373.88 49.0765ZM336.79 47.1401H341.521L342.656 50.4965H344.694L340.213 38.0786H338.131L333.65 50.4965H335.654L336.79 47.1401ZM341.03 45.5913H337.28L339.129 40.144H339.181L341.03 45.5913ZM350.595 50.5912C352.866 50.5912 354.371 48.7836 354.371 45.9702C354.371 43.1645 352.857 41.3481 350.561 41.3481C349.981 41.3294 349.406 41.4683 348.899 41.7502C348.392 42.032 347.97 42.4462 347.679 42.9487H347.645V41.4428H345.847V53.4916H347.705V49.0073H347.748C348.026 49.5121 348.44 49.9285 348.944 50.2086C349.447 50.4888 350.02 50.6214 350.595 50.5912ZM350.071 42.9321C351.515 42.9321 352.462 44.1372 352.462 45.9702C352.462 47.8198 351.515 49.0161 350.071 49.0161C348.652 49.0161 347.697 47.7944 347.697 45.9702C347.697 44.1626 348.652 42.9321 350.071 42.9321ZM364.331 45.9702C364.331 48.7836 362.826 50.5912 360.554 50.5912C359.979 50.6214 359.407 50.4887 358.903 50.2086C358.4 49.9285 357.985 49.5121 357.707 49.0072H357.664V53.4916H355.807V41.4428H357.605V42.9487H357.639C357.93 42.4462 358.351 42.032 358.859 41.7502C359.366 41.4683 359.94 41.3294 360.52 41.3481C362.817 41.3481 364.331 43.1645 364.331 45.9702ZM362.421 45.9702C362.421 44.1372 361.475 42.9321 360.03 42.9321C358.611 42.9321 357.656 44.1625 357.656 45.9702C357.656 47.7944 358.611 49.0161 360.03 49.0161C361.475 49.0161 362.421 47.8198 362.421 45.9702ZM382.543 39.3002V41.4428H384.263V42.9145H382.543V47.9057C382.543 48.6811 382.887 49.0424 383.644 49.0424C383.848 49.0388 384.052 49.0245 384.255 48.9994V50.4623C383.914 50.5259 383.569 50.5547 383.223 50.5482C381.391 50.5482 380.676 49.8597 380.676 48.1039V42.9145H379.361V41.4428H380.676V39.3002H382.543ZM389.552 41.3315C386.937 41.3315 385.26 43.1215 385.26 45.9701C385.26 48.8266 386.92 50.6088 389.552 50.6088C392.184 50.6088 393.844 48.8266 393.844 45.9701C393.844 43.1215 392.175 41.3315 389.552 41.3315ZM389.552 42.8627C391.057 42.8627 391.952 44.016 391.952 45.9701C391.952 47.932 391.057 49.0766 389.552 49.0766C388.046 49.0766 387.152 47.932 387.152 45.9701C387.152 44.0248 388.046 42.8627 389.552 42.8627ZM395.376 41.4428H397.147V42.9838H397.19C397.31 42.5025 397.592 42.0772 397.988 41.7793C398.384 41.4814 398.871 41.3291 399.367 41.3481C399.581 41.3473 399.794 41.3706 400.003 41.4174V43.1557C399.733 43.0731 399.451 43.0351 399.168 43.0434C398.899 43.0324 398.63 43.08 398.38 43.1829C398.13 43.2858 397.906 43.4415 397.722 43.6394C397.538 43.8373 397.399 44.0727 397.315 44.3294C397.23 44.586 397.202 44.8579 397.233 45.1264V50.4965H395.376V41.4428ZM404.67 50.6088C406.717 50.6088 408.317 49.4809 408.567 47.8373H406.803C406.638 48.2464 406.346 48.5913 405.969 48.8207C405.593 49.0502 405.152 49.1519 404.713 49.1108C404.379 49.1231 404.046 49.0641 403.737 48.9378C403.427 48.8115 403.148 48.6207 402.918 48.3782C402.688 48.1356 402.511 47.8469 402.401 47.531C402.291 47.2152 402.25 46.8795 402.279 46.5463V46.434H408.67V45.7973C408.67 43.0522 407.096 41.3315 404.592 41.3315C402.047 41.3315 400.404 43.1733 400.404 46.0131C400.404 48.8442 402.038 50.6088 404.67 50.6088ZM406.812 45.1352H402.288C402.287 44.8325 402.346 44.5328 402.462 44.2531C402.577 43.9735 402.747 43.7195 402.962 43.5059C403.176 43.2922 403.43 43.1232 403.71 43.0084C403.99 42.8937 404.29 42.8355 404.592 42.8373C404.892 42.8309 405.19 42.8865 405.467 43.0007C405.745 43.115 405.995 43.2853 406.204 43.5011C406.412 43.7168 406.574 43.9734 406.678 44.2546C406.783 44.5358 406.828 44.8356 406.812 45.1352ZM340.999 31.5683C340.905 31.8503 340.871 32.1489 340.899 32.4448C340.87 32.741 340.904 33.04 340.997 33.3225C341.091 33.6051 341.243 33.8649 341.442 34.0853C341.642 34.3057 341.886 34.4818 342.158 34.6024C342.43 34.7229 342.724 34.7852 343.022 34.7852C343.319 34.7852 343.613 34.7229 343.885 34.6024C344.157 34.4818 344.401 34.3057 344.601 34.0853C344.801 33.8649 344.952 33.6051 345.046 33.3225C345.14 33.04 345.173 32.741 345.144 32.4448C345.172 32.1489 345.139 31.8503 345.045 31.5683C344.951 31.2862 344.799 31.0268 344.599 30.8069C344.4 30.5869 344.156 30.4111 343.884 30.2908C343.613 30.1706 343.319 30.1084 343.022 30.1084C342.725 30.1084 342.431 30.1706 342.159 30.2908C341.887 30.4111 341.644 30.5869 341.444 30.8069C341.244 31.0268 341.092 31.2862 340.999 31.5683ZM343.023 30.8979C343.792 30.8979 344.231 31.4687 344.231 32.4448C344.231 33.4248 343.792 33.9951 343.023 33.9951C342.251 33.9951 341.817 33.4287 341.817 32.4448C341.817 31.4687 342.251 30.8979 343.023 30.8979ZM350.787 34.6982H349.865L348.935 31.3818H348.865L347.939 34.6982H347.026L345.785 30.1953H346.686L347.492 33.6313H347.559L348.484 30.1953H349.336L350.262 33.6313H350.332L351.134 30.1953H352.022L350.787 34.6982ZM353.921 30.1953H353.066V34.6982H353.954V32.0639C353.938 31.9158 353.955 31.7661 354.002 31.625C354.05 31.4838 354.127 31.3547 354.229 31.2463C354.331 31.1379 354.455 31.0529 354.593 30.997C354.731 30.9412 354.88 30.9159 355.028 30.9228C355.685 30.9228 356 31.2827 356 32.0063V34.6981H356.888V31.7831C356.92 31.5658 356.903 31.344 356.838 31.1342C356.772 30.9244 356.661 30.7319 356.511 30.5711C356.362 30.4102 356.178 30.2851 355.973 30.205C355.769 30.1249 355.549 30.0919 355.33 30.1084C355.051 30.0856 354.771 30.1507 354.53 30.2945C354.29 30.4383 354.1 30.6537 353.987 30.9106H353.921V30.1953ZM360.525 31.5682C360.432 31.8503 360.398 32.1489 360.426 32.4448C360.397 32.741 360.431 33.04 360.524 33.3225C360.618 33.6051 360.769 33.8649 360.969 34.0853C361.169 34.3057 361.413 34.4818 361.685 34.6023C361.957 34.7229 362.251 34.7851 362.549 34.7851C362.846 34.7851 363.14 34.7229 363.412 34.6023C363.684 34.4818 363.928 34.3057 364.128 34.0853C364.328 33.8649 364.479 33.6051 364.573 33.3225C364.667 33.04 364.7 32.741 364.671 32.4448C364.7 32.1489 364.666 31.8503 364.572 31.5682C364.478 31.2861 364.326 31.0268 364.127 30.8068C363.927 30.5868 363.683 30.411 363.411 30.2908C363.14 30.1705 362.846 30.1083 362.549 30.1083C362.252 30.1083 361.958 30.1705 361.686 30.2908C361.414 30.411 361.171 30.5868 360.971 30.8068C360.771 31.0268 360.619 31.2861 360.525 31.5682ZM362.55 30.8979C363.319 30.8979 363.757 31.4687 363.757 32.4448C363.757 33.4248 363.319 33.9951 362.55 33.9951C361.778 33.9951 361.344 33.4287 361.344 32.4448C361.344 31.4687 361.778 30.8979 362.55 30.8979ZM365.606 33.4248C365.606 32.6142 366.21 32.1469 367.28 32.0805L368.499 32.0102V31.6216C368.499 31.146 368.185 30.8774 367.578 30.8774C367.082 30.8774 366.739 31.0595 366.64 31.3779H365.78C365.871 30.6045 366.598 30.1084 367.619 30.1084C368.747 30.1084 369.384 30.6704 369.384 31.6216V34.6982H368.529V34.0654H368.458C368.316 34.2924 368.115 34.4774 367.878 34.6016C367.64 34.7259 367.374 34.7848 367.106 34.7724C366.918 34.7921 366.727 34.7719 366.546 34.7132C366.365 34.6545 366.199 34.5586 366.058 34.4316C365.916 34.3046 365.803 34.1494 365.725 33.976C365.648 33.8026 365.607 33.6148 365.606 33.4248ZM368.499 33.04V32.6635L367.4 32.7339C366.78 32.7753 366.499 32.9863 366.499 33.3833C366.499 33.7885 366.851 34.0244 367.334 34.0244C367.476 34.0387 367.619 34.0244 367.754 33.9823C367.89 33.9402 368.016 33.8712 368.125 33.7794C368.234 33.6875 368.323 33.5747 368.387 33.4477C368.452 33.3207 368.49 33.182 368.499 33.04ZM372.419 30.1206C371.282 30.1206 370.551 31.022 370.551 32.4448C370.551 33.8711 371.274 34.7725 372.419 34.7724C372.704 34.7829 372.986 34.7153 373.235 34.5768C373.484 34.4383 373.691 34.2343 373.832 33.9868H373.903V34.6982H374.754V28.4375H373.866V30.9106H373.799C373.668 30.6614 373.468 30.4548 373.224 30.3149C372.979 30.175 372.7 30.1076 372.419 30.1206ZM372.671 33.9746C371.918 33.9746 371.468 33.3999 371.468 32.4448C371.468 31.4975 371.923 30.9189 372.671 30.9189C373.415 30.9189 373.882 31.5102 373.882 32.4487C373.882 33.3916 373.42 33.9746 372.671 33.9746ZM378.429 32.4448C378.4 32.1489 378.434 31.8503 378.528 31.5683C378.622 31.2862 378.773 31.0268 378.973 30.8069C379.173 30.5869 379.417 30.4111 379.688 30.2908C379.96 30.1706 380.254 30.1084 380.551 30.1084C380.848 30.1084 381.142 30.1706 381.414 30.2908C381.685 30.4111 381.929 30.5869 382.129 30.8069C382.329 31.0268 382.48 31.2862 382.574 31.5683C382.668 31.8503 382.702 32.1489 382.673 32.4448C382.702 32.741 382.669 33.04 382.575 33.3225C382.482 33.6051 382.33 33.8649 382.13 34.0853C381.93 34.3057 381.687 34.4818 381.415 34.6024C381.143 34.7229 380.848 34.7852 380.551 34.7852C380.253 34.7852 379.959 34.7229 379.687 34.6024C379.415 34.4818 379.172 34.3057 378.972 34.0853C378.772 33.8649 378.62 33.6051 378.527 33.3225C378.433 33.04 378.4 32.741 378.429 32.4448ZM381.76 32.4448C381.76 31.4687 381.321 30.8979 380.552 30.8979C379.78 30.8979 379.346 31.4687 379.346 32.4448C379.346 33.4287 379.78 33.9951 380.552 33.9951C381.322 33.9951 381.76 33.4248 381.76 32.4448ZM384.72 30.1953H383.865V34.6982H384.753V32.0639C384.738 31.9158 384.754 31.7661 384.801 31.625C384.849 31.4838 384.926 31.3547 385.028 31.2463C385.131 31.1379 385.255 31.0529 385.393 30.997C385.531 30.9412 385.679 30.9159 385.828 30.9228C386.485 30.9228 386.799 31.2827 386.799 32.0063V34.6981H387.687V31.7831C387.719 31.5658 387.702 31.344 387.637 31.1342C387.572 30.9244 387.46 30.7319 387.311 30.5711C387.161 30.4102 386.977 30.2851 386.773 30.205C386.568 30.1249 386.348 30.0919 386.13 30.1084C385.85 30.0856 385.57 30.1507 385.33 30.2945C385.089 30.4383 384.899 30.6537 384.786 30.9106H384.72V30.1953ZM392.706 29.0742V30.2158H393.681V30.9643H392.706V33.2798C392.706 33.7514 392.9 33.958 393.342 33.958C393.456 33.9576 393.569 33.9508 393.681 33.9375V34.6777C393.522 34.7062 393.36 34.7214 393.198 34.7231C392.21 34.7231 391.817 34.3754 391.817 33.5073V30.9643H391.102V30.2158H391.817V29.0742H392.706ZM395.775 28.4375H394.894V34.6982H395.783V32.0683C395.769 31.9157 395.789 31.7619 395.841 31.6178C395.893 31.4736 395.976 31.3426 396.084 31.2339C396.192 31.1251 396.322 31.0413 396.466 30.9883C396.61 30.9352 396.763 30.9142 396.916 30.9267C397.543 30.9267 397.878 31.291 397.878 32.0102V34.6982H398.767V31.791C398.796 31.5747 398.777 31.3546 398.711 31.1464C398.646 30.9383 398.535 30.7472 398.387 30.5869C398.239 30.4266 398.057 30.3009 397.855 30.2189C397.653 30.1368 397.435 30.1004 397.217 30.1123C396.933 30.0892 396.649 30.1543 396.404 30.2987C396.158 30.443 395.963 30.6596 395.845 30.9189H395.775V28.4375ZM403.946 33.4824C403.825 33.8939 403.564 34.2499 403.207 34.4881C402.851 34.7262 402.422 34.8314 401.996 34.7851C401.699 34.793 401.405 34.7361 401.132 34.6186C400.86 34.5011 400.617 34.3257 400.419 34.1045C400.221 33.8834 400.074 33.6218 399.987 33.338C399.9 33.0542 399.876 32.7549 399.917 32.4609C399.878 32.166 399.902 31.8661 399.988 31.5814C400.075 31.2968 400.221 31.034 400.418 30.8109C400.615 30.5879 400.857 30.4097 401.129 30.2885C401.4 30.1673 401.695 30.1059 401.992 30.1084C403.244 30.1084 404 30.9644 404 32.3784V32.6885H400.822V32.7383C400.808 32.9035 400.829 33.0698 400.883 33.2266C400.937 33.3833 401.023 33.5271 401.136 33.6485C401.249 33.77 401.386 33.8665 401.538 33.9319C401.69 33.9973 401.855 34.0301 402.02 34.0283C402.233 34.0538 402.448 34.0155 402.639 33.9183C402.829 33.8211 402.987 33.6694 403.091 33.4824H403.946ZM400.822 32.0312H403.095C403.106 31.8801 403.086 31.7283 403.035 31.5856C402.984 31.4429 402.904 31.3124 402.799 31.2025C402.695 31.0927 402.569 31.0059 402.429 30.9477C402.289 30.8895 402.139 30.8613 401.987 30.8647C401.834 30.8628 401.681 30.8917 401.539 30.9496C401.397 31.0076 401.267 31.0934 401.159 31.2021C401.05 31.3108 400.964 31.4402 400.906 31.5826C400.849 31.725 400.82 31.8775 400.822 32.0312ZM321.266 32.2114C322.078 31.2372 322.477 29.985 322.38 28.7207C321.141 28.851 319.997 29.4435 319.175 30.3804C318.773 30.838 318.465 31.3705 318.269 31.9472C318.072 32.524 317.992 33.1338 318.031 33.7417C318.651 33.7481 319.264 33.6137 319.825 33.3486C320.385 33.0835 320.878 32.6947 321.266 32.2114ZM323.997 40.3011C324.007 39.4665 324.229 38.6481 324.641 37.9221C325.053 37.1962 325.641 36.5863 326.352 36.1491C325.9 35.5039 325.305 34.973 324.612 34.5984C323.92 34.2239 323.15 34.016 322.363 33.9914C321.336 33.8836 320.329 34.2836 319.505 34.6106C318.983 34.8181 318.534 34.9962 318.202 34.9962C317.824 34.9962 317.363 34.8108 316.846 34.6031C316.17 34.3314 315.399 34.0216 314.596 34.0381C313.678 34.0677 312.785 34.3346 312.001 34.8127C311.218 35.2907 310.571 35.9637 310.125 36.766C308.192 40.1144 309.634 45.0354 311.486 47.742C312.412 49.0674 313.495 50.5478 314.911 50.4953C315.554 50.4686 316.01 50.2766 316.481 50.0783C317.026 49.8488 317.591 49.6108 318.489 49.6108C319.335 49.6108 319.876 49.8414 320.395 50.0626C320.893 50.2747 321.37 50.4783 322.078 50.4619C323.566 50.4378 324.503 49.1307 325.397 47.7928C326.062 46.8484 326.574 45.8047 326.914 44.7003C326.05 44.3346 325.313 43.7224 324.794 42.9401C324.275 42.1578 323.998 41.24 323.997 40.3011Z" fill="white"/>
<mask id="mask0_10814_13162" style="mask-type:luminance" maskUnits="userSpaceOnUse" x="468" y="20" width="137" height="40">
<path d="M604.04 20H468.84V60H604.04V20Z" fill="white"/>
</mask>
<g mask="url(#mask0_10814_13162)">
<path d="M599.033 20H473.847C471.082 20 468.84 22.2386 468.84 25V55C468.84 57.7614 471.082 60 473.847 60H599.033C601.798 60 604.04 57.7614 604.04 55V25C604.04 22.2386 601.798 20 599.033 20Z" fill="black"/>
<path d="M599.033 20.8C601.356 20.8 603.239 22.68 603.239 25V55C603.239 57.32 601.356 59.2 599.033 59.2H473.847C471.524 59.2 469.641 57.32 469.641 55V25C469.641 22.68 471.524 20.8 473.847 20.8H599.033ZM599.033 20H473.847C471.093 20 468.84 22.25 468.84 25V55C468.84 57.75 471.093 60 473.847 60H599.033C601.787 60 604.04 57.75 604.04 55V25C604.04 22.25 601.787 20 599.033 20Z" fill="#A6A6A6"/>
<path fill-rule="evenodd" clip-rule="evenodd" d="M537.552 33.0898C538.994 33.0898 540.176 32.0598 540.176 30.1198C540.176 28.4398 539.144 27.2598 537.632 27.2598C536.12 27.2598 535.008 28.4398 535.008 30.2298C535.008 31.9298 536.11 33.0898 537.552 33.0898ZM537.592 32.4998C536.44 32.4998 535.789 31.4198 535.789 30.2098V30.1998C535.789 28.9598 536.39 27.8498 537.602 27.8498C538.814 27.8498 539.404 29.0298 539.404 30.1498C539.404 31.4398 538.743 32.4998 537.592 32.4998ZM513.156 33.0598C513.917 33.0598 514.558 32.8698 514.888 32.7498V32.7398V30.0298H513.025V30.6198H514.177V32.2998C514.007 32.3798 513.686 32.4498 513.206 32.4498C511.884 32.4498 511.022 31.5898 511.022 30.1698C511.022 28.7498 511.924 27.8998 513.296 27.8998C513.867 27.8998 514.247 28.0098 514.548 28.1398L514.728 27.5498C514.478 27.4298 513.967 27.2898 513.316 27.2898C511.413 27.2898 510.251 28.5298 510.251 30.2098C510.251 31.0898 510.552 31.8398 511.042 32.3098C511.593 32.8398 512.304 33.0598 513.156 33.0598ZM516.891 30.3498H519.094L519.104 30.3398V29.7398H516.901V27.9598H519.225V27.3498H516.17V32.9998H519.345V32.3898H516.891V30.3498ZM521.668 27.9698H519.956V27.3498H524.142V27.9698H522.409V32.9998H521.668V27.9698ZM527.617 32.9998V27.3498H526.886V32.9998H527.617ZM530.121 27.9698H528.408V27.3498H532.594V27.9698H530.862V32.9998H530.121V27.9698ZM541.297 32.9998V27.3498H542.098L543.911 30.2098C544.332 30.8698 544.662 31.4698 544.923 32.0398H544.943C544.872 31.2798 544.862 30.5898 544.862 29.7098V27.3498H545.553V32.9998H544.812L543.02 30.1298C542.629 29.4998 542.249 28.8598 541.958 28.2498H541.928C541.968 28.9698 541.988 29.6498 541.988 30.5898V32.9998H541.297ZM532.805 45.9998C532.805 43.5398 534.727 41.7498 537.081 41.7498C539.434 41.7498 541.357 43.5498 541.357 45.9998C541.357 48.4498 539.434 50.2498 537.081 50.2498C534.727 50.2498 532.805 48.4598 532.805 45.9998ZM534.677 45.9998C534.677 47.5198 535.789 48.5798 537.081 48.5798C538.373 48.5798 539.484 47.5298 539.484 45.9998C539.484 44.4698 538.373 43.4198 537.081 43.4198C535.789 43.4198 534.677 44.4798 534.677 45.9998ZM523.481 45.9998C523.481 43.5398 525.404 41.7498 527.757 41.7498C530.111 41.7498 532.033 43.5498 532.033 45.9998C532.033 48.4498 530.111 50.2498 527.757 50.2498C525.404 50.2498 523.481 48.4598 523.481 45.9998ZM525.354 45.9998C525.354 47.5198 526.465 48.5798 527.757 48.5798C529.049 48.5798 530.161 47.5298 530.161 45.9998C530.161 44.4698 529.049 43.4198 527.757 43.4198C526.465 43.4198 525.354 44.4798 525.354 45.9998ZM516.661 44.8498V43.0598H522.74C522.81 43.3798 522.84 43.7698 522.84 44.1898C522.84 45.5398 522.469 47.2198 521.278 48.4098C520.116 49.6198 518.634 50.2598 516.661 50.2598C513.015 50.2598 509.951 47.2998 509.951 43.6498C509.951 39.9998 513.015 37.0398 516.661 37.0398C518.684 37.0398 520.116 37.8298 521.197 38.8598L519.926 40.1298C519.154 39.3998 518.103 38.8398 516.671 38.8398C514.007 38.8398 511.924 40.9798 511.924 43.6398C511.924 46.2998 514.007 48.4398 516.671 48.4398C518.393 48.4398 519.375 47.7498 520.006 47.1198C520.516 46.6098 520.857 45.8598 520.987 44.8498H516.661ZM558.392 41.7398C560.606 41.7398 561.687 43.4998 562.038 44.4498H562.048L562.238 44.9298L556.54 47.2798C556.97 48.1398 557.651 48.5698 558.603 48.5698C559.554 48.5698 560.215 48.0998 560.696 47.3898L562.148 48.3598C561.687 49.0498 560.556 50.2398 558.603 50.2398C556.179 50.2398 554.377 48.3698 554.377 45.9898C554.377 43.4598 556.179 41.7398 558.392 41.7398ZM558.453 43.3898C557.501 43.3898 556.179 44.2298 556.229 45.8698L560.035 44.2898C559.825 43.7598 559.194 43.3898 558.453 43.3898ZM553.475 49.9898H551.602V37.4898H553.475V49.9898ZM548.478 42.6898H548.538V41.9998H550.311V49.6398C550.311 52.7798 548.458 54.0698 546.265 54.0698C544.201 54.0698 542.96 52.6898 542.489 51.5598L544.121 50.8798C544.412 51.5698 545.123 52.3898 546.265 52.3898C547.667 52.3898 548.538 51.5198 548.538 49.8898V49.2798H548.478C548.057 49.7998 547.246 50.2498 546.234 50.2498C544.101 50.2498 542.148 48.4098 542.148 46.0098C542.148 43.6098 544.101 41.7398 546.234 41.7398C547.256 41.7398 548.057 42.1898 548.478 42.6898ZM544.021 46.0098C544.021 47.4898 545.103 48.5698 546.395 48.5698C547.667 48.5698 548.668 47.4998 548.668 46.0098C548.668 44.5198 547.687 43.4198 546.395 43.4198C545.103 43.4198 544.021 44.5298 544.021 46.0098ZM566.334 37.4898H570.811H570.821C572.894 37.4898 574.927 38.9898 574.927 41.3698C574.927 43.7498 572.894 45.2498 570.821 45.2498H568.207V49.9898H566.334V37.4898ZM568.207 43.5198H570.861V43.5098C572.263 43.5098 573.054 42.3498 573.054 41.3698C573.054 40.3898 572.263 39.2298 570.861 39.2298H568.207V43.5198ZM579.073 43.6298C579.654 42.3198 581.056 41.7198 582.408 41.7198L582.388 41.7098C584.531 41.7098 586.194 42.9498 586.194 45.1698V49.9598H584.391V48.9998H584.331C583.9 49.6598 583.199 50.2198 581.947 50.2198C580.305 50.2198 578.843 49.1398 578.843 47.4698C578.843 45.6398 580.655 44.6598 582.448 44.6598C583.339 44.6598 584.06 44.9498 584.401 45.1398V45.0098C584.391 43.9798 583.399 43.3998 582.438 43.3998C581.747 43.3998 581.086 43.6298 580.736 44.3198L579.073 43.6298ZM580.715 47.5098C580.715 48.2598 581.567 48.5698 582.178 48.5698V48.5798C583.259 48.5798 584.261 47.7598 584.401 46.5998C583.91 46.3598 583.52 46.1798 582.698 46.1798C581.777 46.1798 580.715 46.5498 580.715 47.5098ZM590.63 47.4098L592.773 41.9898H592.783H594.856L589.719 53.7798H587.766L589.669 49.5698L586.334 41.9898H588.347L590.57 47.4098H590.63ZM577.811 49.9898H575.938V37.4898H577.811V49.9898Z" fill="white"/>
<mask id="mask1_10814_13162" style="mask-type:luminance" maskUnits="userSpaceOnUse" x="478" y="27" width="24" height="26">
<path d="M501.878 27.1406H478.824V52.8506H501.878V27.1406Z" fill="white"/>
</mask>
<g mask="url(#mask1_10814_13162)">
<path d="M489.59 39.4202L478.924 50.7202C479.254 51.9502 480.376 52.8502 481.708 52.8502C482.239 52.8502 482.74 52.7102 483.17 52.4502L483.2 52.4302L495.198 45.5202L489.58 39.4102L489.59 39.4202Z" fill="#EA4335"/>
<path d="M500.377 37.5002H500.367L495.189 34.4902L489.35 39.6802L495.209 45.5302L500.367 42.5602C501.268 42.0702 501.879 41.1202 501.879 40.0302C501.879 38.9402 501.278 37.9902 500.377 37.5102V37.5002Z" fill="#FBBC04"/>
<path d="M478.924 29.2812C478.864 29.5212 478.824 29.7612 478.824 30.0212V49.9812C478.824 50.2412 478.854 50.4813 478.924 50.7213L489.95 39.7112L478.924 29.2812Z" fill="#4285F4"/>
<path d="M489.67 40.0006L495.188 34.4906L483.2 27.5506C482.77 27.2906 482.259 27.1406 481.708 27.1406C480.376 27.1406 479.254 28.0506 478.924 29.2706L489.67 39.9906V40.0006Z" fill="#34A853"/>
</g>
</g>
<path d="M104.313 38.7749L110.138 32H108.758L103.699 37.8826L99.6595 32H95L101.109 40.8955L95 48H96.3805L101.722 41.7878L105.988 48H110.648L104.312 38.7749H104.313ZM102.422 40.9738L101.803 40.0881L96.8779 33.0397H98.9982L102.973 38.728L103.592 39.6137L108.758 47.0075H106.638L102.422 40.9742V40.9738Z" fill="white"/>
</svg>
